<svg xmlns="http://www.w3.org/2000/svg" width="120" height="120" viewBox="0 0 120 120">
    <g fill="none" fill-rule="evenodd">
        <circle cx="60" cy="60" r="60" fill="#E9527F" fill-rule="nonzero"/>
        <circle cx="60" cy="60" r="50" fill="#FFF" fill-rule="nonzero"/>
        <path fill="#E9527F" d="M88.489 79.747l-3.035-3.035a4.545 4.545 0 0 0-6.422-.004l-2.326 2.326a4.546 4.546 0 0 0 .004 6.421l3.035 3.034a9.666 9.666 0 0 1-7.803-2.802 9.71 9.71 0 0 1-2.144-10.509 1.218 1.218 0 0 0 .373-.253l1.157-1.164a1.23 1.23 0 0 0-1.742-1.736l-.003.002-.912.918-6.666-6.665a3.562 3.562 0 0 0-.457-2.39l3.31-3.311 8.96 8.959c.057.059.122.11.19.157.03.019.063.034.095.05.038.021.074.045.115.061.035.014.073.023.11.034.039.013.078.027.119.036.031.006.064.007.096.011.047.004.094.012.14.012.033.001.065-.005.1-.008.045-.002.09-.004.137-.013.08-.015.157-.037.233-.068a9.703 9.703 0 0 1 10.533 2.133 9.662 9.662 0 0 1 2.803 7.804zm-30.002-12.46l-4.774-4.774.523-.524.277-.276a1.093 1.093 0 0 1 1.545 0l.254.255.01.012 2.699 2.698.011.01.255.254c.427.426.427 1.12 0 1.546l-.276.276-.524.523zm-1.424 4.76L41.13 87.981a1.913 1.913 0 0 1-2.704 0l-.106-.105 14.414-14.414c.061-.061.115-.128.16-.197 1.254-1.442 1.21-3.628-.16-4.999-1.372-1.371-3.56-1.414-5.002-.157a1.125 1.125 0 0 0-.192.157L33.124 82.681l-.106-.105a1.914 1.914 0 0 1 0-2.705l15.935-15.936a1.915 1.915 0 0 1 2.704 0l5.406 5.407a1.914 1.914 0 0 1 0 2.705zM36.58 86.137l-1.717-1.717 14.414-14.414a1.215 1.215 0 0 1 1.717 0 1.216 1.216 0 0 1 0 1.715l-.005.007-14.41 14.409zm10.608-34.674a1.2 1.2 0 0 0-.189-.156c-.034-.022-.072-.039-.109-.058-.033-.018-.066-.038-.1-.053-.04-.017-.083-.027-.125-.04-.034-.009-.068-.023-.103-.03-.038-.008-.078-.009-.117-.013-.04-.004-.08-.011-.121-.011-.041 0-.081.007-.121.01-.038.004-.077.004-.116.01-.08.016-.158.038-.234.07a9.711 9.711 0 0 1-10.54-2.134 9.668 9.668 0 0 1-2.802-7.803l3.034 3.036a4.545 4.545 0 0 0 6.421.002l2.326-2.326a4.544 4.544 0 0 0-.005-6.42l-3.035-3.035a9.661 9.661 0 0 1 7.806 2.803 9.701 9.701 0 0 1 2.189 10.378c-.07.046-.138.098-.199.16l-.003.003-1.156 1.163a1.23 1.23 0 0 0 1.743 1.737l.002-.003.697-.701 8.09 8.09-3.31 3.31a3.565 3.565 0 0 0-2.392-.458l-7.53-7.53zm16.711 4.68L79.77 40.27c.01-.01.017-.021.026-.032.03-.032.057-.067.083-.102.023-.03.046-.059.066-.092.021-.034.038-.07.056-.107.018-.035.036-.07.049-.107.014-.036.024-.074.033-.112.01-.04.022-.078.029-.12.006-.035.008-.072.01-.11.003-.044.006-.088.004-.132-.001-.014.002-.027 0-.041l-.188-2.711 6.899-3.829 1.386 1.386-3.828 6.9-2.711-.19c-.013 0-.027.003-.04.002-.045-.002-.089 0-.133.004a.933.933 0 0 0-.111.01c-.041.007-.08.018-.12.028-.037.01-.074.02-.111.034-.037.014-.072.032-.107.048-.037.019-.073.035-.107.057a.833.833 0 0 0-.092.065 1.05 1.05 0 0 0-.103.084c-.01.009-.022.016-.031.026L64.859 57.1l-1.74 1.74-3.228 3.228-.96-.959 3.23-3.228 1.738-1.739zm23.525 14.06a12.156 12.156 0 0 0-12.419-2.955l-8.408-8.408 15.475-15.475 2.933.205a1.23 1.23 0 0 0 1.16-.63l4.66-8.395a1.23 1.23 0 0 0-.207-1.466l-.313-.314-2.07-2.07-.314-.313a1.23 1.23 0 0 0-1.467-.207l-8.394 4.659a1.231 1.231 0 0 0-.63 1.162l.204 2.932L62.16 54.403l-8.408-8.408a12.153 12.153 0 0 0-2.955-12.42A12.117 12.117 0 0 0 38.4 30.612c-.014.004-.024.012-.036.017-.043.014-.083.034-.124.054-.033.017-.066.033-.098.052-.035.02-.068.046-.1.071a1.39 1.39 0 0 0-.097.079c-.01.01-.022.016-.032.027-.018.018-.03.039-.048.057a1.686 1.686 0 0 0-.08.098c-.023.033-.043.067-.064.102a1.046 1.046 0 0 0-.097.213 1.1 1.1 0 0 0-.055.227c-.005.042-.01.083-.012.124a1.839 1.839 0 0 0 .012.234c.008.044.019.087.03.13.005.023.007.044.015.067.004.012.01.023.016.035.015.042.034.083.054.124.017.034.033.068.053.1.02.032.044.063.066.094.027.036.054.071.086.104.008.01.014.02.024.03l4.636 4.635c.812.813.814 2.133.003 2.943l-2.325 2.326c-.81.81-2.13.809-2.943-.004l-4.636-4.636c-.009-.01-.02-.014-.029-.023a1.238 1.238 0 0 0-.11-.09c-.028-.02-.056-.043-.086-.06a1.159 1.159 0 0 0-.113-.06c-.036-.018-.072-.035-.11-.049-.013-.005-.025-.013-.04-.018-.026-.008-.052-.01-.078-.017-.037-.01-.074-.019-.112-.024a1.408 1.408 0 0 0-.235-.015c-.046.002-.09.007-.136.014a1.005 1.005 0 0 0-.225.055 1.091 1.091 0 0 0-.215.1 1.182 1.182 0 0 0-.2.146c-.017.015-.035.027-.05.041-.01.01-.015.02-.024.028a1.381 1.381 0 0 0-.09.111c-.02.029-.043.057-.06.085-.023.037-.04.076-.061.115-.017.035-.033.07-.046.107-.006.014-.015.027-.02.042a12.125 12.125 0 0 0 2.965 12.395 12.165 12.165 0 0 0 12.428 2.956l6.496 6.497-.887.887c-1.504-.47-3.208-.129-4.396 1.06L31.279 78.132a4.377 4.377 0 0 0 0 6.182l5.406 5.407a4.377 4.377 0 0 0 6.183 0l15.936-15.935c1.188-1.189 1.528-2.892 1.059-4.396l.887-.887L67.247 75a12.162 12.162 0 0 0 2.956 12.426 12.13 12.13 0 0 0 12.394 2.966c.013-.005.025-.013.036-.018.057-.02.11-.046.165-.075.027-.014.055-.027.082-.043.056-.036.108-.08.159-.126.015-.014.032-.023.047-.038.004-.004.008-.011.011-.016.068-.068.122-.143.17-.221l.041-.08c.033-.066.06-.133.08-.203.01-.028.02-.054.026-.083a1.2 1.2 0 0 0 .03-.283c0-.026-.005-.052-.008-.077a1.207 1.207 0 0 0-.04-.236c-.006-.017-.004-.035-.01-.052-.004-.016-.013-.03-.02-.044-.012-.036-.029-.07-.045-.104-.02-.04-.039-.08-.061-.116-.018-.03-.04-.058-.06-.086-.03-.038-.058-.076-.09-.11-.01-.01-.015-.02-.024-.03l-4.637-4.635a2.083 2.083 0 0 1-.002-2.943l2.325-2.326c.81-.81 2.13-.809 2.942.005l4.636 4.636c.01.01.02.015.03.023.033.031.068.06.105.085.03.024.06.047.093.067.032.02.067.036.1.054.042.019.082.039.124.054.012.004.023.011.035.015.014.006.03.004.043.008.086.025.171.04.257.046.021 0 .04.005.06.005.1.002.197-.01.294-.03.024-.007.045-.015.069-.02.076-.023.149-.052.22-.09.024-.011.047-.021.07-.034.084-.052.167-.11.24-.183v-.001l.004-.005c.062-.063.116-.132.161-.205.014-.02.024-.043.035-.064.032-.06.062-.12.084-.181.004-.012.011-.02.015-.032 1.436-4.382.3-9.132-2.965-12.397z"/>
    </g>
</svg>
