<svg xmlns="http://www.w3.org/2000/svg" width="120" height="120" viewBox="0 0 120 120">
    <g fill="none" fill-rule="evenodd">
        <circle cx="60" cy="60" r="60" fill="#49E2B8" fill-rule="nonzero"/>
        <circle cx="60" cy="60" r="50" fill="#FFF" fill-rule="nonzero"/>
        <g fill="#49E2B8">
            <path d="M31.703 64.533c.006-.053.014-.12.019-.148.018-.102.044-.202.07-.303.027-.099.06-.196.094-.294.008-.026.01-.037.016-.052l.002-.004c.083-.185.186-.36.294-.53l.092-.132c.063-.077.128-.153.196-.226.113-.12.238-.227.365-.332.042-.03.11-.082.135-.098.084-.056.172-.106.259-.156.087-.049.177-.092.266-.136l.06-.02c.223-.083.454-.137.686-.18.06-.006.123-.01.184-.014a4.425 4.425 0 0 1 .615.013c.13.022.26.054.39.088.094.024.185.058.277.09.049.023.215.09.255.111.12.061.235.132.349.204l.065.045c.04.03.12.087.144.108.17.145.323.31.469.482.005.015.137.196.163.237.072.115.136.234.196.354.014.026.025.053.037.08l.027.068c.046.13.083.262.118.394.025.097.04.196.058.294-.013-.024.02.326.022.396a6.166 6.166 0 0 1-.03.49l-.012.091c-.017.098-.04.194-.061.29a6.496 6.496 0 0 1-.164.585c-.031.1-.067.195-.102.292l-.045.114-.021.045c-.171.38-.382.742-.616 1.087l-.102.142c-.042.051-.083.102-.125.151a5.428 5.428 0 0 1-.49.493c-.017.017-.064.054-.101.085l-.16.11c-.077.05-.16.095-.24.14-.023.014-.077.04-.12.06a3.346 3.346 0 0 1-.404.117h-.001a2.57 2.57 0 0 1-.351 0h-.002c-.088-.017-.173-.042-.26-.066-.036-.01-.071-.025-.106-.038-.038-.017-.124-.055-.158-.073a3.305 3.305 0 0 1-.362-.225c-.036-.029-.114-.087-.14-.11-.1-.086-.191-.179-.284-.272a5.19 5.19 0 0 1-.331-.379l-.101-.135c-.06-.085-.115-.173-.171-.26a7.315 7.315 0 0 1-.466-.873c-.014-.038-.03-.075-.043-.113a6.86 6.86 0 0 1-.33-1.167l-.014-.1a4.492 4.492 0 0 1-.01-.82m-.15 6.021c.848.763 1.866 1.245 3.013 1.304 1.173.061 2.247-.517 3.12-1.24 1.616-1.339 2.608-3.67 2.628-5.746-.025-2.068-1.15-3.998-2.978-4.984-1.826-.985-4.17-.877-5.873.318-1.675 1.174-2.65 3.172-2.433 5.222.2 1.908 1.084 3.832 2.523 5.126M32.639 80.136h-4.95V78.05c0-.079.003-.156.005-.234.004-.07.008-.139.015-.208l.012-.062c.024-.136.06-.269.097-.402.014-.051.096-.266.122-.339.057-.123.119-.244.187-.36.028-.048.167-.246.2-.3a4.71 4.71 0 0 1 .553-.559 4.398 4.398 0 0 1 .663-.393l.021-.009c.043-.016.085-.033.129-.048.161-.057.328-.1.495-.138l.066-.013c.043-.006.161-.025.198-.028.116-.009.232-.011.348-.011h.408l2.846 3.2c.465.523 1.437.527 1.901 0l2.823-3.2h.424c.14 0 .28.008.419.019.092.016.184.036.275.056.167.039.33.093.491.15l.021.007.032.015c.092.043.179.091.268.14.115.063.221.137.328.211.027.028.239.194.284.235.121.114.232.239.34.365l.002.002.031.045a3.861 3.861 0 0 1 .342.598c.005.029.112.295.13.355.038.126.067.255.092.384.008.051.023.148.026.181.008.107.01.214.011.321v2.106h-9.655zm9.6-7.022c-.838-.539-1.83-.794-2.815-.853-.497-.029-1.124-.089-1.607.043-.471.13-.731.502-1.032.845-.366.413-.731.827-1.095 1.241l-.689.781-.797-.895-1.106-1.244c-.376-.424-.69-.776-1.347-.776-.663 0-1.311-.009-1.97.094-1.023.159-1.911.636-2.717 1.265C25.691 74.684 25 76.458 25 78.162v3.318c0 .733.612 1.344 1.344 1.344h17.295c.733 0 1.345-.611 1.345-1.344v-3.451c-.026-2.017-1.056-3.828-2.745-4.915zM87.596 65.362l-.013.091c-.017.098-.04.194-.06.291a6.947 6.947 0 0 1-.268.876c-.013.04-.03.077-.045.115l-.02.044c-.17.38-.381.742-.615 1.087l-.103.142c-.042.051-.083.102-.125.151a5.429 5.429 0 0 1-.49.494 3.227 3.227 0 0 1-.102.084 3.205 3.205 0 0 1-.517.31 3.362 3.362 0 0 1-.406.117l-.001.001c-.117.01-.234.006-.35 0h-.002a2.537 2.537 0 0 1-.26-.067c-.036-.01-.071-.025-.106-.037-.038-.018-.124-.055-.16-.074a3.305 3.305 0 0 1-.361-.225l-.14-.109c-.098-.086-.191-.179-.284-.272-.118-.12-.224-.249-.331-.379l-.1-.136a7.13 7.13 0 0 1-.617-1.087l-.02-.044-.044-.115a6.767 6.767 0 0 1-.344-1.266c-.007-.069-.012-.138-.017-.207a4.48 4.48 0 0 1 .007-.613c.006-.052.014-.122.019-.149.019-.102.045-.202.07-.302.028-.1.06-.197.094-.295l.017-.05c0-.003 0-.004.002-.006.083-.184.185-.36.294-.53.014-.023.06-.088.09-.132a5.31 5.31 0 0 1 .198-.226c.112-.12.238-.227.365-.332.042-.03.11-.082.135-.098.084-.056.172-.106.259-.156.086-.049.176-.092.265-.135.017-.006.032-.01.062-.022.222-.08.453-.136.684-.179a3.836 3.836 0 0 1 .615-.014c.06.003.122.008.184.014.13.022.26.053.39.087.094.024.185.058.277.09.05.023.216.091.256.111.12.061.234.132.348.204l.066.045c.039.03.119.087.143.108.17.146.324.311.469.482.005.016.138.197.163.238.073.114.136.234.197.354l.037.08c.006.016.013.037.026.068.047.13.083.261.118.394.026.097.04.196.059.295-.014-.03.02.323.02.394a5.725 5.725 0 0 1-.028.49m-.262-5.474c-1.826-.985-4.168-.877-5.872.318-1.675 1.174-2.648 3.172-2.432 5.222.2 1.91 1.084 3.832 2.522 5.126.849.764 1.866 1.245 3.014 1.305 1.173.06 2.246-.518 3.12-1.24 1.615-1.34 2.607-3.67 2.628-5.747-.026-2.067-1.151-3.997-2.98-4.984M82.639 80.96h-4.95V78.874a6.046 6.046 0 0 1 .019-.442l.013-.062c.024-.136.06-.269.097-.402.014-.051.096-.266.121-.339.058-.123.12-.244.188-.36.028-.048.167-.246.2-.3.167-.202.354-.388.553-.559a4.398 4.398 0 0 1 .663-.393l.021-.009c.042-.016.085-.033.128-.048.162-.057.329-.1.496-.138l.067-.013c.043-.006.16-.025.197-.028.116-.009.232-.011.348-.011h.408l2.846 3.2c.465.523 1.437.527 1.901 0l2.823-3.2h.424c.14 0 .28.008.419.019.092.016.184.036.275.056.167.039.33.093.491.15l.021.007.032.015c.092.043.179.091.268.14.115.063.221.137.328.211.027.028.239.194.284.235.121.114.232.239.34.365l.002.002.031.045c.058.082.111.168.163.254.067.11.123.227.179.344.005.029.112.295.13.355.038.126.067.255.092.384.008.052.023.148.026.181.008.107.01.214.011.321v2.106h-9.655zm12.344-2.108c-.025-2.017-1.055-3.827-2.744-4.914-.838-.539-1.83-.794-2.815-.853-.498-.029-1.125-.089-1.607.043-.471.13-.731.502-1.033.845l-1.094 1.241-.69.781c-.264-.299-.53-.597-.796-.895l-1.106-1.244c-.376-.424-.69-.776-1.347-.776-.664 0-1.311-.009-1.97.094-1.023.159-1.911.636-2.717 1.265C75.691 75.508 75 77.282 75 78.986v3.318c0 .733.612 1.344 1.344 1.344h17.295c.732 0 1.345-.611 1.345-1.344v-3.45l-.001-.002zM56.702 28.358c.006-.053.014-.122.019-.148.019-.102.045-.203.072-.303.025-.099.058-.197.092-.295l.017-.05c0-.003 0-.004.002-.006.083-.184.186-.359.294-.53.014-.022.06-.088.09-.13a3.715 3.715 0 0 1 .562-.559l.135-.099c.084-.056.172-.106.26-.156.086-.049.176-.092.266-.135l.06-.022c.223-.08.453-.135.685-.179a3.873 3.873 0 0 1 .8 0c.13.022.26.053.389.087.094.025.185.058.277.09.049.023.215.091.255.111.12.061.236.133.349.204l.065.045c.04.03.12.087.144.108.172.146.324.311.469.482.005.016.137.197.164.238.072.114.135.234.196.354l.037.08.026.068c.047.13.084.261.119.394.025.097.04.196.057.294-.013-.027.02.325.022.395a5.724 5.724 0 0 1-.028.49l-.014.092a6.596 6.596 0 0 1-.327 1.166l-.045.115-.02.044c-.172.38-.383.743-.616 1.088l-.102.141-.126.151a5.303 5.303 0 0 1-.49.494c-.017.016-.063.053-.1.084l-.16.11c-.078.05-.16.096-.24.141a3.549 3.549 0 0 1-.12.06 3.16 3.16 0 0 1-.404.116l-.002.001a2.57 2.57 0 0 1-.351 0h-.002c-.088-.017-.173-.042-.26-.067-.036-.01-.07-.025-.106-.038-.038-.017-.123-.054-.157-.072a3.465 3.465 0 0 1-.362-.225c-.037-.029-.114-.088-.14-.11a4.889 4.889 0 0 1-.716-.786c-.06-.085-.115-.173-.171-.26a6.797 6.797 0 0 1-.308-.546c-.05-.092-.093-.187-.137-.282a1.148 1.148 0 0 1-.065-.159 6.858 6.858 0 0 1-.328-1.167l-.015-.099a7.232 7.232 0 0 1-.02-.207 4.48 4.48 0 0 1 .009-.613m-.15 6.021c.848.763 1.867 1.244 3.013 1.304 1.173.06 2.247-.517 3.12-1.24 1.616-1.339 2.608-3.67 2.629-5.747-.025-2.067-1.151-3.997-2.98-4.984-1.825-.985-4.168-.877-5.872.318-1.674 1.175-2.648 3.172-2.432 5.223.2 1.908 1.084 3.832 2.522 5.126M52.689 42.315v-.265a3.6 3.6 0 0 1 .02-.441l.011-.063c.025-.135.061-.27.098-.401.014-.052.097-.267.121-.34.059-.122.12-.243.187-.36.028-.047.168-.246.202-.3.167-.202.353-.388.551-.56a4.298 4.298 0 0 1 .664-.393l.021-.008c.042-.016.085-.033.128-.047.162-.058.328-.1.495-.138l.067-.014c.044-.006.161-.024.199-.028.115-.01.231-.011.346-.011h.409l2.845 3.2c.466.523 1.438.527 1.902 0l2.823-3.2h.424c.14 0 .28.008.42.019a4.191 4.191 0 0 1 .764.206l.021.007.032.015c.092.043.181.092.269.14.114.063.221.138.329.21.026.029.238.195.282.236.122.114.233.239.342.366h.001a.654.654 0 0 0 .031.046c.058.082.11.168.163.253.067.11.123.228.179.345.005.029.112.295.13.356.039.125.066.254.091.383.008.052.024.148.027.182.009.106.01.213.011.32v2.106H52.689V42.315zm-1.345 4.51h17.294c.734 0 1.345-.612 1.345-1.344V42.03c-.024-2.016-1.055-3.828-2.745-4.915-.837-.54-1.829-.794-2.815-.853-.497-.03-1.124-.09-1.606.043-.472.13-.732.5-1.033.844l-1.095 1.24-.688.782-.796-.895-1.107-1.244c-.376-.423-.69-.775-1.347-.775-.664 0-1.312-.01-1.97.093-1.024.159-1.91.636-2.717 1.265C50.69 38.685 50 40.458 50 42.163v3.318c0 .732.611 1.344 1.344 1.344zM32.974 57.284c.677.186 1.499-.223 1.654-.94.206-.953.462-1.894.766-2.821a26.507 26.507 0 0 1 .695-1.871l.078-.185a27.455 27.455 0 0 1 3.091-5.336l.205-.273.022-.028c.01-.015.024-.031.047-.06a27.568 27.568 0 0 1 3.43-3.63 29.224 29.224 0 0 1 1.223-1.016l.18-.138a27.186 27.186 0 0 1 3.559-2.27c.646-.345.843-1.224.483-1.838-.38-.65-1.194-.83-1.84-.483-6.97 3.74-12.193 10.335-14.232 17.978-.11.416-.21.836-.3 1.257-.155.716.204 1.45.939 1.654M72.372 85.525a28.495 28.495 0 0 1-2.328 1.126l-.431.174a27.293 27.293 0 0 1-5.504 1.514c-.133.023-.267.042-.4.063l-.236.034-.08.01a27.86 27.86 0 0 1-6.85.002l-.073-.01-.105-.015c-.134-.018-.267-.04-.4-.06a26.535 26.535 0 0 1-2.489-.518 26.955 26.955 0 0 1-3.136-1.012c-.123-.047-.244-.097-.365-.146l-.205-.086a26.357 26.357 0 0 1-2.751-1.377 1.359 1.359 0 0 0-1.84.482c-.367.628-.153 1.477.483 1.84A29.108 29.108 0 0 0 58.72 91.32c4.645.22 9.283-.76 13.494-2.71a27.817 27.817 0 0 0 1.513-.763c.645-.348.844-1.223.483-1.84-.38-.647-1.194-.831-1.84-.482M71.659 38.712a28.132 28.132 0 0 1 3.62 2.169c.186.13.369.266.552.402l.2.15c-.05-.035.212.168.247.196a27.677 27.677 0 0 1 4.465 4.505c.01.015.015.019.023.03l.044.058a26.85 26.85 0 0 1 1.052 1.486 27.162 27.162 0 0 1 2.368 4.434 27.014 27.014 0 0 1 1.299 4.097c.167.713.969 1.127 1.653.939.727-.2 1.107-.941.94-1.654-1.805-7.703-6.848-14.426-13.693-18.377a26.971 26.971 0 0 0-1.413-.757c-.655-.328-1.451-.18-1.838.482-.353.602-.173 1.51.48 1.84M49.849 57.382c.018-.04.06-.142.076-.173.061-.12.134-.235.207-.348l.025-.038.008-.01c.065-.078.135-.15.205-.222.07-.072.146-.138.222-.204l.002-.003.046-.03a3.27 3.27 0 0 1 .414-.239c.041-.016.143-.06.176-.07a3.684 3.684 0 0 1 .452-.12h.008c.107-.01.215-.013.322-.014h15.332c.102 0 .202.01.304.017-.008.01.312.066.38.085.065.02.131.04.195.063l.022.008.033.016c.152.072.297.161.437.253l.035.025c.055.046.111.094.163.143.096.088.179.186.263.285.005.021.175.258.206.313.033.06.066.12.095.18l.012.022.011.033a3.56 3.56 0 0 1 .152.55v.007c.011.106.012.213.014.32l-.001.002v9.282c0 .117-.008.234-.017.351l-.03.183c-.023.101-.054.2-.084.3-.007.021-.03.078-.049.125a3.55 3.55 0 0 1-.154.293c-.032.056-.07.11-.106.163-.031.041-.081.11-.101.132-.101.116-.214.22-.331.321-.025.016-.131.097-.162.118-.085.055-.174.103-.262.152-.021.011-.078.036-.124.057a4.195 4.195 0 0 1-.317.104c-.065.018-.133.03-.199.044-.054.008-.138.021-.17.024a3.562 3.562 0 0 1-.231.006h-7.329c-.537 0-.878.325-1.239.65l-2.975 2.677v-1.983c0-.733-.612-1.344-1.345-1.344-.88 0-1.765.032-2.644-.006a1.776 1.776 0 0 1-.123-.015 4.109 4.109 0 0 1-.245-.053c-.1-.025-.198-.059-.296-.092l-.021-.007-.033-.017a3.322 3.322 0 0 1-.431-.252c-.041-.03-.109-.08-.131-.1a3.805 3.805 0 0 1-.284-.284c-.015-.016-.047-.057-.076-.094a5.347 5.347 0 0 1-.132-.2 4.073 4.073 0 0 1-.146-.268l-.011-.023-.011-.032a3.247 3.247 0 0 1-.135-.49c.016.043-.031-.314-.031-.392v-9.33c0-.107.006-.213.013-.319a3.244 3.244 0 0 1 .146-.532M47 58.744v8.782c0 2.247 1.482 4.19 3.614 4.853.702.218 1.44.198 2.166.198h.315v3.655c0 1.22 1.442 1.718 2.296.95l5.117-4.605h5.197c.841 0 1.696.047 2.529-.087 2.009-.32 3.713-2.026 4.035-4.035.11-.693.086-1.385.086-2.085v-8.137c-.032-2.21-1.438-4.072-3.514-4.783-.703-.24-1.442-.228-2.173-.228H52.083c-1.727 0-3.203.827-4.215 2.2-.715.97-.868 2.156-.868 3.322"/>
            <path d="M59.837 64.892c.49.026.915-.224 1.278-.52.288-.234.444-.599.513-.964.03-.112.049-.228.043-.349v-.001a1.142 1.142 0 0 0-.101-.53 2.243 2.243 0 0 0-.42-.749c-.31-.381-.847-.53-1.313-.555-.491-.027-.916.224-1.28.52-.38.31-.53.847-.555 1.314-.026.491.225.916.52 1.279.31.381.848.53 1.315.555M53.836 64.892c.49.026.916-.224 1.279-.52.287-.234.443-.599.513-.964.029-.112.049-.228.042-.349v-.001a1.12 1.12 0 0 0-.101-.53 2.24 2.24 0 0 0-.42-.749c-.31-.381-.846-.53-1.313-.555-.491-.027-.916.224-1.28.52-.38.31-.53.847-.554 1.314-.026.491.224.916.52 1.279.31.381.848.53 1.314.555M65.836 64.892c.49.026.916-.224 1.279-.52.287-.234.443-.598.512-.963.03-.113.05-.229.043-.351v-.001a1.14 1.14 0 0 0-.1-.529 2.243 2.243 0 0 0-.42-.749c-.31-.381-.847-.53-1.314-.555-.49-.027-.916.224-1.278.52-.381.31-.531.847-.556 1.314-.026.491.225.916.52 1.279.31.381.848.53 1.314.555"/>
        </g>
    </g>
</svg>
