<svg xmlns="http://www.w3.org/2000/svg" width="120" height="120" viewBox="0 0 120 120">
    <g fill="none" fill-rule="evenodd">
        <circle cx="60" cy="60" r="60" fill="#E4B444" fill-rule="nonzero"/>
        <circle cx="60" cy="60" r="50" fill="#FFF" fill-rule="nonzero"/>
        <path fill="#E4B444" d="M56.414 65.6c-.03.022-.057.05-.091.07.032-.022.063-.046.091-.07zm-.824-11.453c2.31 0 4.428.76 6.14 2.038l-4.262 4.261a4.286 4.286 0 0 0-1.878-.435c-2.413 0-4.398 1.987-4.398 4.398 0 2.412 1.985 4.398 4.398 4.398 2.412 0 4.399-1.986 4.399-4.398 0-.678-.156-1.325-.436-1.9l4.262-4.263a10.234 10.234 0 0 1 2.038 6.163A10.24 10.24 0 0 1 55.59 74.672a10.24 10.24 0 0 1-10.263-10.263A10.24 10.24 0 0 1 55.59 54.147zm0-8.064c4.541 0 8.692 1.626 11.89 4.352L63.815 54.1a13.131 13.131 0 0 0-8.225-2.887c-7.27 0-13.196 5.925-13.196 13.195 0 7.27 5.926 13.195 13.196 13.195S68.786 71.68 68.786 64.41c0-3.11-1.1-5.965-2.91-8.224l3.666-3.665a18.247 18.247 0 0 1 4.375 11.889c0 10.139-8.188 18.327-18.327 18.327-10.14 0-18.327-8.188-18.327-18.327 0-10.14 8.188-18.326 18.327-18.326zm0-7.332c6.568 0 12.554 2.435 17.09 6.483l-3.138 3.14a21.169 21.169 0 0 0-13.952-5.225c-11.724 0-21.26 9.536-21.26 21.26 0 11.724 9.536 21.26 21.26 21.26 11.725 0 21.26-9.536 21.26-21.26 0-5.338-1.987-10.214-5.247-13.951l3.139-3.14a25.605 25.605 0 0 1 6.506 17.091c0 14.188-11.47 25.658-25.658 25.658s-25.658-11.47-25.658-25.658 11.47-25.658 25.658-25.658zm27.857-7.01v3.345c0 .768.699 1.466 1.466 1.466h3.322l-3.253 3.666h-5.2v-5.223l3.665-3.253zm1.443-4.74c-.372.006-.769.23-.961.389l-6.598 5.863a1.484 1.484 0 0 0-.481 1.1v6.713l-2.108 2.107A28.483 28.483 0 0 0 55.59 35.82C39.817 35.82 27 48.637 27 64.409 27 80.182 39.817 93 55.59 93c15.772 0 28.59-12.818 28.59-28.591 0-7.363-2.793-14.079-7.376-19.151l2.107-2.109h6.736c.415 0 .827-.19 1.099-.503l5.865-6.598c.364-.42.459-1.059.229-1.566a1.502 1.502 0 0 0-1.329-.862H86.38v-5.131c.013-.783-.706-1.502-1.489-1.489z"/>
    </g>
</svg>
