<svg xmlns="http://www.w3.org/2000/svg" width="120" height="120" viewBox="0 0 120 120">
    <g fill="none" fill-rule="evenodd">
        <circle cx="60" cy="60" r="60" fill="#CB62F1" fill-rule="nonzero"/>
        <circle cx="60" cy="60" r="50" fill="#FFF" fill-rule="nonzero"/>
        <path fill="#CB62F1" d="M88.343 52.996a6.333 6.333 0 0 1-4.136 5.923V45.267a6.335 6.335 0 0 1 4.136 5.93v1.799zM81.53 66.66c-.006.074-.01.15-.01.225v8.206c-3.179-1.794-14.316-7.763-24.986-9.988-1.6-.378-4.978-.596-8.883-.842-.945-.06-1.98-.126-3.013-.197V42.85h4.288c12.2 0 28.888-8.796 32.608-10.844v10.455c0 .06.012.116.015.174V61.49c-.007.079-.019.156-.019.234v4.937zM56.741 82.302c.028.045.057.088.086.13a2.6 2.6 0 0 1-.007 3.015 2.593 2.593 0 0 1-.65.43 2.54 2.54 0 0 0-.219.114 16.458 16.458 0 0 1-7.029 2.163 2.587 2.587 0 0 0-.2.023 1.607 1.607 0 0 1-.161.014 1.563 1.563 0 0 1-1.447-1.157 2.008 2.008 0 0 0-.054-.18l-7.027-20.517c1.81.21 4.3.378 7.451.577 1.98.124 4.109.26 5.794.415-.02.16-.04.322-.032.486.372 7.614 2.45 12.805 3.495 14.487zM31.657 53.527c.009-5.763 4.609-10.462 10.324-10.658v20.992c-1.87-.162-3.41-.35-3.894-.563a1.364 1.364 0 0 0-.286-.088l-.047-.022-.254-.12a10.639 10.639 0 0 1-5.843-9.54zm52.55-11.06v-1.118h-.015v-10.19a2.16 2.16 0 0 0-3.235-1.874c-.187.11-19.164 10.909-32.031 10.909H42.37c-7.373-.012-13.358 5.956-13.37 13.33a13.346 13.346 0 0 0 7.295 11.91l-.002.005c.024.012.139.067.32.148.141.067.28.14.426.204l7.507 21.923a4.213 4.213 0 0 0 3.991 3.134c.192 0 .385-.015.577-.043a19.044 19.044 0 0 0 8.17-2.514 5.265 5.265 0 0 0 1.44-.988c.084-.084.16-.176.23-.273a5.26 5.26 0 0 0 .043-6.132c-.77-1.239-2.744-5.994-3.097-13.213 12.046 2.487 24.877 10.021 25.013 10.116a2.162 2.162 0 0 0 3.264-1.859v-7.028h.03v-7.195A9.011 9.011 0 0 0 91 52.996v-1.8a9.013 9.013 0 0 0-6.793-8.73z"/>
    </g>
</svg>
