<svg xmlns="http://www.w3.org/2000/svg" width="120" height="120" viewBox="0 0 120 120">
    <g fill="none" fill-rule="evenodd">
        <circle cx="60" cy="60" r="60" fill="#5979E6" fill-rule="nonzero"/>
        <circle cx="60" cy="60" r="50" fill="#FFF" fill-rule="nonzero"/>
        <path fill="#5979E6" d="M58.403 36.845v-4.451c0-.868.161-1.484.483-1.848.322-.364.75-.546 1.281-.546.532 0 .959.182 1.28.546.323.364.484.98.484 1.848v4.45c1.903.169 3.471.47 4.703.904 1.232.433 2.687 1.21 4.367 2.33.028-.7.21-1.218.546-1.554a1.66 1.66 0 0 1 1.218-.503c.532 0 .965.181 1.301.545.336.364.504.966.504 1.806v5.25c0 .839-.168 1.44-.504 1.805-.336.364-.77.546-1.301.546a1.58 1.58 0 0 1-1.134-.441c-.308-.294-.518-.791-.63-1.491-.168-1.316-1.036-2.506-2.604-3.57-2.295-1.511-4.997-2.267-8.104-2.267-3.163 0-5.774.924-7.832 2.772-2.057 1.847-3.086 3.933-3.086 6.256 0 2.324.91 4.102 2.73 5.333 1.371.952 4.262 1.841 8.67 2.667 4.41.826 7.398 1.603 8.966 2.33 2.24.98 3.912 2.31 5.018 3.99 1.106 1.68 1.659 3.71 1.659 6.089 0 3.191-1.246 5.997-3.737 8.42-2.492 2.42-6.075 3.87-10.75 4.345v5.372c0 .868-.161 1.484-.483 1.848-.322.364-.75.546-1.281.546-.532 0-.959-.182-1.28-.546-.323-.364-.484-.98-.484-1.848v-5.372c-4.31-.28-7.936-1.68-10.876-4.199 0 1.232-.049 1.98-.147 2.247-.098.266-.3.504-.609.713-.307.21-.643.315-1.007.315-.504 0-.924-.182-1.26-.545-.336-.364-.504-.966-.504-1.806v-6.887c0-.84.161-1.449.483-1.827.322-.377.749-.566 1.28-.566.505 0 .938.182 1.302.545.252.252.406.812.462 1.68.168 1.484 1.365 3.003 3.59 4.556 2.226 1.554 5.243 2.33 9.05 2.33 3.947 0 7.055-.937 9.322-2.813 2.268-1.875 3.402-4.059 3.402-6.55 0-1.652-.42-3.066-1.26-4.242-.84-1.175-2.156-2.141-3.947-2.897-1.176-.476-3.64-1.064-7.391-1.764-5.431-1.064-9.196-2.435-11.296-4.115-2.128-1.68-3.191-4.143-3.191-7.39 0-3.024 1.147-5.725 3.443-8.105 2.296-2.38 5.347-3.793 9.154-4.241z"/>
    </g>
</svg>
