<svg xmlns="http://www.w3.org/2000/svg" width="120" height="120" viewBox="0 0 120 120">
    <g fill="none" fill-rule="evenodd">
        <circle cx="60" cy="60" r="60" fill="#8CE954" fill-rule="nonzero"/>
        <circle cx="60" cy="60" r="50" fill="#FFF" fill-rule="nonzero"/>
        <g fill-rule="nonzero" transform="translate(48 46)">
            <path fill="#8CE954" d="M12.5 9l-6 4.5v-9z"/>
            <circle cx="9" cy="9" r="9" stroke="#8CE954" stroke-width="2"/>
        </g>
        <path fill="#8CE954" d="M79.154 61.353h13.487v-1.401H79.154v1.401zm0 21.702h13.487V63.712H79.154v19.343zm0 4.145h13.487v-1.787H79.154V87.2zm-2.36-27.656V70.6H31.846V39.793a2.02 2.02 0 0 1 2.054-2.054h45.185a2.02 2.02 0 0 1 2.053 2.054v17.8h-2.392a1.957 1.957 0 0 0-1.952 1.951zM30.477 76.503c-1.541 0-2.739-.254-2.739-1.795v-1.369h49.056v3.164H30.477zm62.571-18.91h-9.171v-17.8c0-2.632-2.162-4.793-4.792-4.793H33.9c-2.631 0-4.793 2.161-4.793 4.793V70.6h-2.738c-.727 0-1.363.684-1.369 1.37v2.738c0 3.011 2.466 4.534 5.477 4.534h46.317v8.366c0 1.073.878 1.951 1.952 1.951h14.302A1.957 1.957 0 0 0 95 87.608V59.544a1.957 1.957 0 0 0-1.952-1.951z"/>
    </g>
</svg>
