<?xml version="1.0" encoding="UTF-8"?>
<svg width="253px" height="252px" viewBox="0 0 253 252" version="1.1" xmlns="http://www.w3.org/2000/svg" xmlns:xlink="http://www.w3.org/1999/xlink">
    <!-- Generator: sketchtool 51.1 (57501) - http://www.bohemiancoding.com/sketch -->
    <title>EBDEA63B-506D-41D4-92FB-075FF090FA53</title>
    <desc>Created with sketchtool.</desc>
    <defs>
        <linearGradient x1="49.9995019%" y1="11.7867199%" x2="49.9995019%" y2="111.786098%" id="linearGradient-1">
            <stop stop-color="#E94B83" offset="0%"></stop>
            <stop stop-color="#E1DB2D" offset="100%"></stop>
        </linearGradient>
        <linearGradient x1="0%" y1="50.0052859%" x2="99.9993785%" y2="50.0052859%" id="linearGradient-2">
            <stop stop-color="#2DDFE1" offset="0%"></stop>
            <stop stop-color="#91E94B" offset="100%"></stop>
        </linearGradient>
        <linearGradient x1="50.0036664%" y1="-14.2561052%" x2="50.0036664%" y2="85.7449237%" id="linearGradient-3">
            <stop stop-color="#2D82E1" offset="0%"></stop>
            <stop stop-color="#D160F2" offset="100%"></stop>
        </linearGradient>
        <linearGradient x1="-3.87876262%" y1="49.9964535%" x2="96.1245204%" y2="49.9964535%" id="linearGradient-4">
            <stop stop-color="#A193F2" offset="0%"></stop>
            <stop stop-color="#FF808C" offset="100%"></stop>
        </linearGradient>
    </defs>
    <g id="mockup" stroke="none" stroke-width="1" fill="none" fill-rule="evenodd">
        <g id="home" transform="translate(-1187.000000, -1428.000000)">
            <g id="plus_4_icon" transform="translate(1125.000000, 1367.000000)">
                <g id="plus" transform="translate(214.865073, 215.120796) rotate(25.000000) translate(-214.865073, -215.120796) translate(53.349962, 53.076993)">
                    <g transform="translate(-0.042640, -0.371371)" id="Group">
                        <g>
                            <path d="M153.390715,226.173913 C135.460892,226.173913 120.929952,239.782887 120.929952,256.572063 L120.929952,293.044114 C120.929952,309.826128 135.460892,323.435102 153.390715,323.435102 L169.328336,323.435102 C187.258159,323.435102 201.789099,309.826128 201.789099,293.044114 L201.789099,256.572063 C201.789099,239.782887 187.258159,226.173913 169.328336,226.173913 L153.390715,226.173913 Z" id="Fill-1" fill="url(#linearGradient-1)"></path>
                            <path d="M30.2971885,121.304348 C13.566971,121.304348 0,135.887438 0,153.879934 L0,169.544579 C0,187.537076 13.566971,202.105841 30.2971885,202.105841 L66.6638113,202.105841 C83.3868882,202.105841 96.9609998,187.537076 96.9609998,169.544579 L96.9609998,153.879934 C96.9609998,135.887438 83.3868882,121.304348 66.6638113,121.304348 L30.2971885,121.304348 Z" id="Fill-4" fill="url(#linearGradient-2)"></path>
                            <path d="M153.397856,0 C135.468032,0 120.929952,14.551661 120.929952,32.4910859 L120.929952,169.309576 C120.929952,187.256148 135.468032,201.800662 153.397856,201.800662 L169.371179,201.800662 C187.301002,201.800662 201.831942,187.256148 201.831942,169.309576 L201.831942,32.4910859 C201.831942,14.551661 187.301002,0 169.371179,0 L153.397856,0 Z" id="Fill-7" fill="url(#linearGradient-3)"></path>
                            <path d="M120.929952,88.4347826 L120.929952,174.235783 L121.371741,174.235783 C123.82296,189.785826 137.212028,201.675772 153.365842,201.675772 L290.320547,201.675772 C308.006373,201.675772 322.385904,187.422162 322.713684,169.723333 L322.713684,152.819555 C322.385904,135.113564 308.006373,120.867117 290.320547,120.867117 L250.060709,120.867117 L250.060709,120.809816 L153.216204,120.809816 L153.201953,120.809816 C135.394991,120.838466 120.937077,106.334165 120.929952,88.4347826 Z" id="Fill-10" fill="url(#linearGradient-4)"></path>
                        </g>
                    </g>
                </g>
            </g>
        </g>
    </g>
</svg>