<?xml version="1.0" encoding="UTF-8"?>
<svg width="155px" height="115px" viewBox="0 0 155 115" version="1.1" xmlns="http://www.w3.org/2000/svg" xmlns:xlink="http://www.w3.org/1999/xlink">
    <!-- Generator: sketchtool 51.1 (57501) - http://www.bohemiancoding.com/sketch -->
    <title>2AF11A6E-54DE-472F-998F-3234F94105BA</title>
    <desc>Created with sketchtool.</desc>
    <defs></defs>
    <g id="mockup" stroke="none" stroke-width="1" fill="none" fill-rule="evenodd">
        <g id="404" transform="translate(-793.000000, -359.000000)">
            <rect fill="#FAFAFA" x="0" y="0" width="1440" height="1024"></rect>
            <g id="Group" transform="translate(391.000000, 315.000000)" fill="#2D82E1" fill-rule="nonzero">
                <g id="Group-6">
                    <g id="Group-8">
                        <g id="Group-9">
                            <g id="icon_error" transform="translate(402.000000, 44.000000)">
                                <path d="M132.742133,0 L22.7469071,0 C10.7703496,0 1,10.869863 1,24.1027397 L1,90.8972603 C1,104.130137 10.7703496,115 22.7469071,115 L132.584546,115 C144.561104,115 154.331453,104.130137 154.331453,90.8972603 L154.331453,24.1027397 C154.48904,10.7123288 144.71869,0 132.742133,0 Z M22.7469071,8.50684932 L132.584546,8.50684932 C139.833515,8.50684932 145.821794,15.4383562 145.821794,24.1027397 L145.821794,28.0410959 L9.66724557,28.0410959 L9.66724557,24.1027397 C9.66724557,15.4383562 15.497938,8.50684932 22.7469071,8.50684932 Z M132.742133,106.335616 L22.7469071,106.335616 C15.497938,106.335616 9.50965929,99.4041096 9.50965929,90.739726 L9.50965929,36.7054795 L145.821794,36.7054795 L145.821794,90.8972603 C145.821794,99.4041096 139.991102,106.335616 132.742133,106.335616 Z" id="Shape"></path>
                                <circle id="Oval" cx="93.0934959" cy="17.296748" r="5.14227642"></circle>
                                <circle id="Oval" cx="108.987805" cy="17.296748" r="5.14227642"></circle>
                                <circle id="Oval" cx="126.752033" cy="17.296748" r="5.14227642"></circle>
                                <polygon id="Shape" points="68.9756098 53.2926829 64.0325203 58.4510793 59.2439024 53.2926829 55.2276423 57.6450799 60.0162602 62.6422764 55.2276423 67.6394729 59.2439024 71.9918699 64.0325203 66.8334735 68.9756098 71.9918699 72.9918699 67.6394729 68.0487805 62.6422764 72.9918699 57.6450799"></polygon>
                                <polygon id="Shape" points="99.1707317 57.6450799 95.1544715 53.2926829 90.3658537 58.4510793 85.4227642 53.2926829 81.4065041 57.6450799 86.3495935 62.6422764 81.4065041 67.6394729 85.4227642 71.9918699 90.3658537 66.8334735 95.1544715 71.9918699 99.1707317 67.6394729 94.3821138 62.6422764"></polygon>
                                <rect id="Rectangle-path" x="56.1626016" y="82.2764228" width="42.0731707" height="5.6097561"></rect>
                            </g>
                        </g>
                    </g>
                </g>
            </g>
        </g>
    </g>
</svg>